<?xml version="1.0" encoding="iso-8859-1"?>
<!-- Generator: Adobe Illustrator 19.0.0, SVG Export Plug-In . SVG Version: 6.00 Build 0)  -->
<svg version="1.1" id="Capa_1" xmlns="http://www.w3.org/2000/svg" xmlns:xlink="http://www.w3.org/1999/xlink" x="0px" y="0px"
	 viewBox="0 0 512 512" style="enable-background:new 0 0 512 512;" xml:space="preserve">
<g>
	<g>
		<path d="M492.522,118.3L266.433,3.743l-0.094-0.047c-10.067-5.012-22.029-4.9-32.002,0.3l-96.969,51.464
			c-0.788,0.334-1.545,0.739-2.27,1.205L18.896,118.337C7.24,124.44,0,136.398,0,149.559V362.44c0,13.161,7.24,25.118,18.896,31.221
			l215.345,114.292l0.097,0.051c5.086,2.652,10.691,3.981,16.297,3.981c5.385,0,10.772-1.226,15.704-3.682l226.183-114.604
			C504.538,387.69,512,375.618,512,362.18V149.82C512,136.381,504.538,124.308,492.522,118.3z M248.237,30.569
			c1.469-0.754,3.223-0.769,4.705-0.042l211.629,107.23l-82.364,41.005L175.308,69.275L248.237,30.569z M235.424,474.63
			L32.91,367.147l-0.097-0.051c-1.741-0.909-2.824-2.692-2.824-4.656V163.091l205.435,107.124V474.63z M250.577,244.295
			L46.272,137.76l97.024-51.493L349.171,195.21L250.577,244.295z M482.009,362.178c0.001,2.007-1.115,3.809-2.911,4.703
			L265.414,475.152V270.408l98.386-48.982v51.355c0,8.281,6.714,14.995,14.995,14.995s14.995-6.714,14.995-14.995v-66.286
			l88.219-43.92V362.178z"/>
	</g>
</g>
<g>
</g>
<g>
</g>
<g>
</g>
<g>
</g>
<g>
</g>
<g>
</g>
<g>
</g>
<g>
</g>
<g>
</g>
<g>
</g>
<g>
</g>
<g>
</g>
<g>
</g>
<g>
</g>
<g>
</g>
</svg>
